<?xml version="1.0" encoding="UTF-8" standalone="no"?>
<!DOCTYPE svg PUBLIC "-//W3C//DTD SVG 1.1//EN"
 "http://www.w3.org/Graphics/SVG/1.1/DTD/svg11.dtd">
<!-- Generated by graphviz version 2.28.0 (20110507.0327)
 -->
<!-- Title: G Pages: 1 -->
<svg width="3575pt" height="1733pt"
 viewBox="0.00 0.00 858.00 416.00" xmlns="http://www.w3.org/2000/svg" xmlns:xlink="http://www.w3.org/1999/xlink">
<g id="graph1" class="graph" transform="scale(4.16667 4.16667) rotate(0) translate(4 412)">
<title>G</title>
<polygon fill="white" stroke="white" points="-4,5 -4,-412 855,-412 855,5 -4,5"/>
<!-- MUSE_2020 -->
<g id="node1" class="node"><title>MUSE_2020</title>
<polyline fill="none" stroke="black" points="233.5,-371 298.5,-371 "/>
<path fill="none" stroke="black" d="M298.5,-371C304.5,-371 310.5,-377 310.5,-383"/>
<polyline fill="none" stroke="black" points="310.5,-383 310.5,-395 "/>
<path fill="none" stroke="black" d="M310.5,-395C310.5,-401 304.5,-407 298.5,-407"/>
<polyline fill="none" stroke="black" points="298.5,-407 233.5,-407 "/>
<path fill="none" stroke="black" d="M233.5,-407C227.5,-407 221.5,-401 221.5,-395"/>
<polyline fill="none" stroke="black" points="221.5,-395 221.5,-383 "/>
<path fill="none" stroke="black" d="M221.5,-383C221.5,-377 227.5,-371 233.5,-371"/>
<text text-anchor="middle" x="266" y="-385.3" font-family="Times New Roman,serif" font-size="14.00">MUSE_2020</text>
</g>
<!-- dislin -->
<g id="node2" class="node"><title>dislin</title>
<polyline fill="none" stroke="black" points="12,-297 42,-297 "/>
<path fill="none" stroke="black" d="M42,-297C48,-297 54,-303 54,-309"/>
<polyline fill="none" stroke="black" points="54,-309 54,-321 "/>
<path fill="none" stroke="black" d="M54,-321C54,-327 48,-333 42,-333"/>
<polyline fill="none" stroke="black" points="42,-333 12,-333 "/>
<path fill="none" stroke="black" d="M12,-333C6,-333 0,-327 0,-321"/>
<polyline fill="none" stroke="black" points="0,-321 0,-309 "/>
<path fill="none" stroke="black" d="M0,-309C0,-303 6,-297 12,-297"/>
<text text-anchor="middle" x="27" y="-311.3" font-family="Times New Roman,serif" font-size="14.00">dislin</text>
</g>
<!-- MUSE_2020&#45;&gt;dislin -->
<g id="edge2" class="edge"><title>MUSE_2020&#45;&gt;dislin</title>
<path fill="none" stroke="black" d="M221.386,-377.828C180.874,-368.122 119.73,-352.297 68,-334 66.58,-333.498 65.1401,-332.968 63.6915,-332.419"/>
<polygon fill="black" stroke="black" points="64.7059,-329.055 54.1219,-328.575 62.0967,-335.55 64.7059,-329.055"/>
</g>
<!-- Linear_systems -->
<g id="node4" class="node"><title>Linear_systems</title>
<polyline fill="none" stroke="black" points="42,-1 122,-1 "/>
<path fill="none" stroke="black" d="M122,-1C128,-1 134,-7 134,-13"/>
<polyline fill="none" stroke="black" points="134,-13 134,-25 "/>
<path fill="none" stroke="black" d="M134,-25C134,-31 128,-37 122,-37"/>
<polyline fill="none" stroke="black" points="122,-37 42,-37 "/>
<path fill="none" stroke="black" d="M42,-37C36,-37 30,-31 30,-25"/>
<polyline fill="none" stroke="black" points="30,-25 30,-13 "/>
<path fill="none" stroke="black" d="M30,-13C30,-7 36,-1 42,-1"/>
<text text-anchor="middle" x="82" y="-15.3" font-family="Times New Roman,serif" font-size="14.00">Linear_systems</text>
</g>
<!-- MUSE_2020&#45;&gt;Linear_systems -->
<g id="edge4" class="edge"><title>MUSE_2020&#45;&gt;Linear_systems</title>
<path fill="none" stroke="black" d="M221.459,-374.498C167.003,-354.904 82,-312.956 82,-242 82,-242 82,-242 82,-166 82,-124.644 82,-76.6996 82,-47.3627"/>
<polygon fill="black" stroke="black" points="85.5001,-47.0826 82,-37.0826 78.5001,-47.0827 85.5001,-47.0826"/>
</g>
<!-- Non_Linear_Systems -->
<g id="node6" class="node"><title>Non_Linear_Systems</title>
<polyline fill="none" stroke="black" points="122.5,-75 235.5,-75 "/>
<path fill="none" stroke="black" d="M235.5,-75C241.5,-75 247.5,-81 247.5,-87"/>
<polyline fill="none" stroke="black" points="247.5,-87 247.5,-99 "/>
<path fill="none" stroke="black" d="M247.5,-99C247.5,-105 241.5,-111 235.5,-111"/>
<polyline fill="none" stroke="black" points="235.5,-111 122.5,-111 "/>
<path fill="none" stroke="black" d="M122.5,-111C116.5,-111 110.5,-105 110.5,-99"/>
<polyline fill="none" stroke="black" points="110.5,-99 110.5,-87 "/>
<path fill="none" stroke="black" d="M110.5,-87C110.5,-81 116.5,-75 122.5,-75"/>
<text text-anchor="middle" x="179" y="-89.3" font-family="Times New Roman,serif" font-size="14.00">Non_Linear_Systems</text>
</g>
<!-- MUSE_2020&#45;&gt;Non_Linear_Systems -->
<g id="edge6" class="edge"><title>MUSE_2020&#45;&gt;Non_Linear_Systems</title>
<path fill="none" stroke="black" d="M249.692,-370.847C241.066,-360.839 231.039,-347.546 225,-334 192.694,-261.537 183.04,-166.871 180.183,-121.109"/>
<polygon fill="black" stroke="black" points="183.675,-120.871 179.619,-111.083 176.686,-121.264 183.675,-120.871"/>
</g>
<!-- Cauchy_Problem -->
<g id="node11" class="node"><title>Cauchy_Problem</title>
<polyline fill="none" stroke="black" points="339,-223 429,-223 "/>
<path fill="none" stroke="black" d="M429,-223C435,-223 441,-229 441,-235"/>
<polyline fill="none" stroke="black" points="441,-235 441,-247 "/>
<path fill="none" stroke="black" d="M441,-247C441,-253 435,-259 429,-259"/>
<polyline fill="none" stroke="black" points="429,-259 339,-259 "/>
<path fill="none" stroke="black" d="M339,-259C333,-259 327,-253 327,-247"/>
<polyline fill="none" stroke="black" points="327,-247 327,-235 "/>
<path fill="none" stroke="black" d="M327,-235C327,-229 333,-223 339,-223"/>
<text text-anchor="middle" x="384" y="-237.3" font-family="Times New Roman,serif" font-size="14.00">Cauchy_Problem</text>
</g>
<!-- MUSE_2020&#45;&gt;Cauchy_Problem -->
<g id="edge12" class="edge"><title>MUSE_2020&#45;&gt;Cauchy_Problem</title>
<path fill="none" stroke="black" d="M254.455,-370.925C242.744,-351.262 228.391,-318.75 244,-296 260.539,-271.894 289.48,-258.546 316.771,-251.156"/>
<polygon fill="black" stroke="black" points="317.858,-254.492 326.726,-248.694 316.178,-247.697 317.858,-254.492"/>
</g>
<!-- Temporal_Schemes -->
<g id="node13" class="node"><title>Temporal_Schemes</title>
<polyline fill="none" stroke="black" points="332,-149 436,-149 "/>
<path fill="none" stroke="black" d="M436,-149C442,-149 448,-155 448,-161"/>
<polyline fill="none" stroke="black" points="448,-161 448,-173 "/>
<path fill="none" stroke="black" d="M448,-173C448,-179 442,-185 436,-185"/>
<polyline fill="none" stroke="black" points="436,-185 332,-185 "/>
<path fill="none" stroke="black" d="M332,-185C326,-185 320,-179 320,-173"/>
<polyline fill="none" stroke="black" points="320,-173 320,-161 "/>
<path fill="none" stroke="black" d="M320,-161C320,-155 326,-149 332,-149"/>
<text text-anchor="middle" x="384" y="-163.3" font-family="Times New Roman,serif" font-size="14.00">Temporal_Schemes</text>
</g>
<!-- MUSE_2020&#45;&gt;Temporal_Schemes -->
<g id="edge28" class="edge"><title>MUSE_2020&#45;&gt;Temporal_Schemes</title>
<path fill="none" stroke="black" d="M251.81,-370.708C238.255,-351.961 221.469,-321.327 233,-296 254.792,-248.135 304.488,-211.756 340.941,-190.235"/>
<polygon fill="black" stroke="black" points="342.973,-193.104 349.898,-185.086 339.484,-187.035 342.973,-193.104"/>
</g>
<!-- Stability_regions -->
<g id="node27" class="node"><title>Stability_regions</title>
<polyline fill="none" stroke="black" points="265,-297 351,-297 "/>
<path fill="none" stroke="black" d="M351,-297C357,-297 363,-303 363,-309"/>
<polyline fill="none" stroke="black" points="363,-309 363,-321 "/>
<path fill="none" stroke="black" d="M363,-321C363,-327 357,-333 351,-333"/>
<polyline fill="none" stroke="black" points="351,-333 265,-333 "/>
<path fill="none" stroke="black" d="M265,-333C259,-333 253,-327 253,-321"/>
<polyline fill="none" stroke="black" points="253,-321 253,-309 "/>
<path fill="none" stroke="black" d="M253,-309C253,-303 259,-297 265,-297"/>
<text text-anchor="middle" x="308" y="-311.3" font-family="Times New Roman,serif" font-size="14.00">Stability_regions</text>
</g>
<!-- MUSE_2020&#45;&gt;Stability_regions -->
<g id="edge30" class="edge"><title>MUSE_2020&#45;&gt;Stability_regions</title>
<path fill="none" stroke="black" d="M275.953,-370.937C280.954,-362.365 287.122,-351.791 292.707,-342.217"/>
<polygon fill="black" stroke="black" points="295.811,-343.842 297.826,-333.441 289.764,-340.315 295.811,-343.842"/>
</g>
<!-- Stability -->
<g id="node29" class="node"><title>Stability</title>
<polyline fill="none" stroke="black" points="517,-297 555,-297 "/>
<path fill="none" stroke="black" d="M555,-297C561,-297 567,-303 567,-309"/>
<polyline fill="none" stroke="black" points="567,-309 567,-321 "/>
<path fill="none" stroke="black" d="M567,-321C567,-327 561,-333 555,-333"/>
<polyline fill="none" stroke="black" points="555,-333 517,-333 "/>
<path fill="none" stroke="black" d="M517,-333C511,-333 505,-327 505,-321"/>
<polyline fill="none" stroke="black" points="505,-321 505,-309 "/>
<path fill="none" stroke="black" d="M505,-309C505,-303 511,-297 517,-297"/>
<text text-anchor="middle" x="536" y="-311.3" font-family="Times New Roman,serif" font-size="14.00">Stability</text>
</g>
<!-- MUSE_2020&#45;&gt;Stability -->
<g id="edge32" class="edge"><title>MUSE_2020&#45;&gt;Stability</title>
<path fill="none" stroke="black" d="M310.567,-379.991C357.208,-371.032 432.242,-354.981 495,-334 495.101,-333.966 495.203,-333.932 495.304,-333.898"/>
<polygon fill="black" stroke="black" points="496.724,-337.105 504.891,-330.356 494.298,-330.538 496.724,-337.105"/>
</g>
<!-- Temporal_error -->
<g id="node34" class="node"><title>Temporal_error</title>
<polyline fill="none" stroke="black" points="393.5,-297 474.5,-297 "/>
<path fill="none" stroke="black" d="M474.5,-297C480.5,-297 486.5,-303 486.5,-309"/>
<polyline fill="none" stroke="black" points="486.5,-309 486.5,-321 "/>
<path fill="none" stroke="black" d="M486.5,-321C486.5,-327 480.5,-333 474.5,-333"/>
<polyline fill="none" stroke="black" points="474.5,-333 393.5,-333 "/>
<path fill="none" stroke="black" d="M393.5,-333C387.5,-333 381.5,-327 381.5,-321"/>
<polyline fill="none" stroke="black" points="381.5,-321 381.5,-309 "/>
<path fill="none" stroke="black" d="M381.5,-309C381.5,-303 387.5,-297 393.5,-297"/>
<text text-anchor="middle" x="434" y="-311.3" font-family="Times New Roman,serif" font-size="14.00">Temporal_error</text>
</g>
<!-- MUSE_2020&#45;&gt;Temporal_error -->
<g id="edge38" class="edge"><title>MUSE_2020&#45;&gt;Temporal_error</title>
<path fill="none" stroke="black" d="M305.814,-370.937C329.474,-360.797 359.674,-347.854 384.817,-337.078"/>
<polygon fill="black" stroke="black" points="386.369,-340.221 394.181,-333.065 383.611,-333.787 386.369,-340.221"/>
</g>
<!-- plots -->
<g id="node37" class="node"><title>plots</title>
<polyline fill="none" stroke="black" points="597,-297 627,-297 "/>
<path fill="none" stroke="black" d="M627,-297C633,-297 639,-303 639,-309"/>
<polyline fill="none" stroke="black" points="639,-309 639,-321 "/>
<path fill="none" stroke="black" d="M639,-321C639,-327 633,-333 627,-333"/>
<polyline fill="none" stroke="black" points="627,-333 597,-333 "/>
<path fill="none" stroke="black" d="M597,-333C591,-333 585,-327 585,-321"/>
<polyline fill="none" stroke="black" points="585,-321 585,-309 "/>
<path fill="none" stroke="black" d="M585,-309C585,-303 591,-297 597,-297"/>
<text text-anchor="middle" x="612" y="-311.3" font-family="Times New Roman,serif" font-size="14.00">plots</text>
</g>
<!-- MUSE_2020&#45;&gt;plots -->
<g id="edge42" class="edge"><title>MUSE_2020&#45;&gt;plots</title>
<path fill="none" stroke="black" d="M310.623,-384.335C369.789,-378.588 477.207,-365.062 575.089,-333.793"/>
<polygon fill="black" stroke="black" points="576.414,-337.042 584.833,-330.609 574.241,-330.388 576.414,-337.042"/>
</g>
<!-- Utilities -->
<g id="node39" class="node"><title>Utilities</title>
<polyline fill="none" stroke="black" points="648,-223 682,-223 "/>
<path fill="none" stroke="black" d="M682,-223C688,-223 694,-229 694,-235"/>
<polyline fill="none" stroke="black" points="694,-235 694,-247 "/>
<path fill="none" stroke="black" d="M694,-247C694,-253 688,-259 682,-259"/>
<polyline fill="none" stroke="black" points="682,-259 648,-259 "/>
<path fill="none" stroke="black" d="M648,-259C642,-259 636,-253 636,-247"/>
<polyline fill="none" stroke="black" points="636,-247 636,-235 "/>
<path fill="none" stroke="black" d="M636,-235C636,-229 642,-223 648,-223"/>
<text text-anchor="middle" x="665" y="-237.3" font-family="Times New Roman,serif" font-size="14.00">Utilities</text>
</g>
<!-- MUSE_2020&#45;&gt;Utilities -->
<g id="edge46" class="edge"><title>MUSE_2020&#45;&gt;Utilities</title>
<path fill="none" stroke="black" d="M310.616,-387.985C400.852,-386.984 600.494,-379.538 648,-334 665.074,-317.633 668.225,-290.119 667.767,-269.434"/>
<polygon fill="black" stroke="black" points="671.257,-269.145 667.254,-259.336 664.266,-269.5 671.257,-269.145"/>
</g>
<!-- Non_Linear_Systems&#45;&gt;Linear_systems -->
<g id="edge10" class="edge"><title>Non_Linear_Systems&#45;&gt;Linear_systems</title>
<path fill="none" stroke="black" d="M156.012,-74.937C143.3,-65.5012 127.319,-53.6389 113.463,-43.3541"/>
<polygon fill="black" stroke="black" points="115.275,-40.3399 105.159,-37.19 111.102,-45.9607 115.275,-40.3399"/>
</g>
<!-- Jacobian_module -->
<g id="node8" class="node"><title>Jacobian_module</title>
<polyline fill="none" stroke="black" points="164,-1 254,-1 "/>
<path fill="none" stroke="black" d="M254,-1C260,-1 266,-7 266,-13"/>
<polyline fill="none" stroke="black" points="266,-13 266,-25 "/>
<path fill="none" stroke="black" d="M266,-25C266,-31 260,-37 254,-37"/>
<polyline fill="none" stroke="black" points="254,-37 164,-37 "/>
<path fill="none" stroke="black" d="M164,-37C158,-37 152,-31 152,-25"/>
<polyline fill="none" stroke="black" points="152,-25 152,-13 "/>
<path fill="none" stroke="black" d="M152,-13C152,-7 158,-1 164,-1"/>
<text text-anchor="middle" x="209" y="-15.3" font-family="Times New Roman,serif" font-size="14.00">Jacobian_module</text>
</g>
<!-- Non_Linear_Systems&#45;&gt;Jacobian_module -->
<g id="edge8" class="edge"><title>Non_Linear_Systems&#45;&gt;Jacobian_module</title>
<path fill="none" stroke="black" d="M186.11,-74.937C189.607,-66.5421 193.906,-56.2266 197.829,-46.81"/>
<polygon fill="black" stroke="black" points="201.118,-48.0176 201.733,-37.4407 194.656,-45.3253 201.118,-48.0176"/>
</g>
<!-- Cauchy_Problem&#45;&gt;Temporal_Schemes -->
<g id="edge14" class="edge"><title>Cauchy_Problem&#45;&gt;Temporal_Schemes</title>
<path fill="none" stroke="black" d="M384,-222.937C384,-214.807 384,-204.876 384,-195.705"/>
<polygon fill="black" stroke="black" points="387.5,-195.441 384,-185.441 380.5,-195.441 387.5,-195.441"/>
</g>
<!-- Temporal_Schemes&#45;&gt;Non_Linear_Systems -->
<g id="edge16" class="edge"><title>Temporal_Schemes&#45;&gt;Non_Linear_Systems</title>
<path fill="none" stroke="black" d="M335.418,-148.937C306.037,-138.618 268.394,-125.397 237.399,-114.511"/>
<polygon fill="black" stroke="black" points="238.183,-111.077 227.588,-111.065 235.863,-117.681 238.183,-111.077"/>
</g>
<!-- Embedded_RKs -->
<g id="node16" class="node"><title>Embedded_RKs</title>
<ellipse fill="none" stroke="black" cx="337" cy="-93" rx="71.2405" ry="18"/>
<text text-anchor="middle" x="337" y="-89.3" font-family="Times New Roman,serif" font-size="14.00">Embedded_RKs</text>
</g>
<!-- Temporal_Schemes&#45;&gt;Embedded_RKs -->
<g id="edge18" class="edge"><title>Temporal_Schemes&#45;&gt;Embedded_RKs</title>
<path fill="none" stroke="black" d="M372.862,-148.937C367.125,-140.15 360.016,-129.258 353.643,-119.496"/>
<polygon fill="black" stroke="black" points="356.455,-117.401 348.058,-110.941 350.594,-121.228 356.455,-117.401"/>
</g>
<!-- Gragg_Burlisch_Stoer -->
<g id="node18" class="node"><title>Gragg_Burlisch_Stoer</title>
<polyline fill="none" stroke="black" points="438,-75 556,-75 "/>
<path fill="none" stroke="black" d="M556,-75C562,-75 568,-81 568,-87"/>
<polyline fill="none" stroke="black" points="568,-87 568,-99 "/>
<path fill="none" stroke="black" d="M568,-99C568,-105 562,-111 556,-111"/>
<polyline fill="none" stroke="black" points="556,-111 438,-111 "/>
<path fill="none" stroke="black" d="M438,-111C432,-111 426,-105 426,-99"/>
<polyline fill="none" stroke="black" points="426,-99 426,-87 "/>
<path fill="none" stroke="black" d="M426,-87C426,-81 432,-75 438,-75"/>
<text text-anchor="middle" x="497" y="-89.3" font-family="Times New Roman,serif" font-size="14.00">Gragg_Burlisch_Stoer</text>
</g>
<!-- Temporal_Schemes&#45;&gt;Gragg_Burlisch_Stoer -->
<g id="edge20" class="edge"><title>Temporal_Schemes&#45;&gt;Gragg_Burlisch_Stoer</title>
<path fill="none" stroke="black" d="M410.779,-148.937C425.868,-139.323 444.91,-127.19 461.258,-116.774"/>
<polygon fill="black" stroke="black" points="463.468,-119.515 470.021,-111.19 459.707,-113.612 463.468,-119.515"/>
</g>
<!-- Adams_Bashforth_Moulton -->
<g id="node20" class="node"><title>Adams_Bashforth_Moulton</title>
<polyline fill="none" stroke="black" points="598.5,-75 747.5,-75 "/>
<path fill="none" stroke="black" d="M747.5,-75C753.5,-75 759.5,-81 759.5,-87"/>
<polyline fill="none" stroke="black" points="759.5,-87 759.5,-99 "/>
<path fill="none" stroke="black" d="M759.5,-99C759.5,-105 753.5,-111 747.5,-111"/>
<polyline fill="none" stroke="black" points="747.5,-111 598.5,-111 "/>
<path fill="none" stroke="black" d="M598.5,-111C592.5,-111 586.5,-105 586.5,-99"/>
<polyline fill="none" stroke="black" points="586.5,-99 586.5,-87 "/>
<path fill="none" stroke="black" d="M586.5,-87C586.5,-81 592.5,-75 598.5,-75"/>
<text text-anchor="middle" x="673" y="-89.3" font-family="Times New Roman,serif" font-size="14.00">Adams_Bashforth_Moulton</text>
</g>
<!-- Temporal_Schemes&#45;&gt;Adams_Bashforth_Moulton -->
<g id="edge22" class="edge"><title>Temporal_Schemes&#45;&gt;Adams_Bashforth_Moulton</title>
<path fill="none" stroke="black" d="M448.138,-150.021C491.44,-139.233 548.858,-124.928 594.834,-113.474"/>
<polygon fill="black" stroke="black" points="595.903,-116.815 604.76,-111.001 594.21,-110.022 595.903,-116.815"/>
</g>
<!-- Wrappers -->
<g id="node24" class="node"><title>Wrappers</title>
<polyline fill="none" stroke="black" points="790,-75 838,-75 "/>
<path fill="none" stroke="black" d="M838,-75C844,-75 850,-81 850,-87"/>
<polyline fill="none" stroke="black" points="850,-87 850,-99 "/>
<path fill="none" stroke="black" d="M850,-99C850,-105 844,-111 838,-111"/>
<polyline fill="none" stroke="black" points="838,-111 790,-111 "/>
<path fill="none" stroke="black" d="M790,-111C784,-111 778,-105 778,-99"/>
<polyline fill="none" stroke="black" points="778,-99 778,-87 "/>
<path fill="none" stroke="black" d="M778,-87C778,-81 784,-75 790,-75"/>
<text text-anchor="middle" x="814" y="-89.3" font-family="Times New Roman,serif" font-size="14.00">Wrappers</text>
</g>
<!-- Temporal_Schemes&#45;&gt;Wrappers -->
<g id="edge26" class="edge"><title>Temporal_Schemes&#45;&gt;Wrappers</title>
<path fill="none" stroke="black" d="M448.09,-161.581C525.064,-155.225 657.617,-140.933 768,-112 768.101,-111.973 768.202,-111.947 768.304,-111.92"/>
<polygon fill="black" stroke="black" points="769.285,-115.28 777.851,-109.046 767.267,-108.577 769.285,-115.28"/>
</g>
<!-- Lagrange_interpolation -->
<g id="node22" class="node"><title>Lagrange_interpolation</title>
<polyline fill="none" stroke="black" points="613,-1 733,-1 "/>
<path fill="none" stroke="black" d="M733,-1C739,-1 745,-7 745,-13"/>
<polyline fill="none" stroke="black" points="745,-13 745,-25 "/>
<path fill="none" stroke="black" d="M745,-25C745,-31 739,-37 733,-37"/>
<polyline fill="none" stroke="black" points="733,-37 613,-37 "/>
<path fill="none" stroke="black" d="M613,-37C607,-37 601,-31 601,-25"/>
<polyline fill="none" stroke="black" points="601,-25 601,-13 "/>
<path fill="none" stroke="black" d="M601,-13C601,-7 607,-1 613,-1"/>
<text text-anchor="middle" x="673" y="-15.3" font-family="Times New Roman,serif" font-size="14.00">Lagrange_interpolation</text>
</g>
<!-- Adams_Bashforth_Moulton&#45;&gt;Lagrange_interpolation -->
<g id="edge24" class="edge"><title>Adams_Bashforth_Moulton&#45;&gt;Lagrange_interpolation</title>
<path fill="none" stroke="black" d="M673,-74.937C673,-66.8072 673,-56.8761 673,-47.7047"/>
<polygon fill="black" stroke="black" points="676.5,-47.4406 673,-37.4407 669.5,-47.4407 676.5,-47.4406"/>
</g>
<!-- Stability&#45;&gt;Cauchy_Problem -->
<g id="edge36" class="edge"><title>Stability&#45;&gt;Cauchy_Problem</title>
<path fill="none" stroke="black" d="M504.874,-299.256C483.078,-288.932 453.612,-274.974 429.229,-263.424"/>
<polygon fill="black" stroke="black" points="430.695,-260.246 420.16,-259.128 427.699,-266.572 430.695,-260.246"/>
</g>
<!-- Numerical_recipes -->
<g id="node31" class="node"><title>Numerical_recipes</title>
<ellipse fill="none" stroke="black" cx="537" cy="-241" rx="77.4897" ry="18"/>
<text text-anchor="middle" x="537" y="-237.3" font-family="Times New Roman,serif" font-size="14.00">Numerical_recipes</text>
</g>
<!-- Stability&#45;&gt;Numerical_recipes -->
<g id="edge34" class="edge"><title>Stability&#45;&gt;Numerical_recipes</title>
<path fill="none" stroke="black" d="M536.237,-296.937C536.35,-288.807 536.488,-278.876 536.615,-269.705"/>
<polygon fill="black" stroke="black" points="540.118,-269.488 536.758,-259.441 533.119,-269.391 540.118,-269.488"/>
</g>
<!-- Temporal_error&#45;&gt;Cauchy_Problem -->
<g id="edge40" class="edge"><title>Temporal_error&#45;&gt;Cauchy_Problem</title>
<path fill="none" stroke="black" d="M422.151,-296.937C416.137,-288.277 408.704,-277.573 402.001,-267.921"/>
<polygon fill="black" stroke="black" points="404.69,-265.658 396.112,-259.441 398.941,-269.651 404.69,-265.658"/>
</g>
<!-- plots&#45;&gt;Utilities -->
<g id="edge44" class="edge"><title>plots&#45;&gt;Utilities</title>
<path fill="none" stroke="black" d="M624.56,-296.937C631,-288.189 638.975,-277.354 646.137,-267.626"/>
<polygon fill="black" stroke="black" points="649.052,-269.569 652.162,-259.441 643.415,-265.419 649.052,-269.569"/>
</g>
</g>
</svg>
